# AST/ASF file generated using VICON BodyLanguage
# -----------------------------------------------
:version 1.10
:name VICON
:units
  mass 1.0
  length 0.45
  angle deg
:documentation
   .ast/.asf automatically generated from VICON data using
   VICON BodyBuilder and BodyLanguage model FoxedUp or BRILLIANT.MOD
:root
   order TX TY TZ RX RY RZ
   axis XYZ
   position 0 0 0  
   orientation 0 0 0 
:bonedata
  begin
     id 1 
     name lhipjoint
     direction 0.528046 -0.759594 0.379717 
     length 2.39752 
     axis 0 0 0  XYZ
  end
  begin
     id 2 
     name lfemur
     direction 0.34202 -0.939693 0  
     length 7.31175  
     axis 0 0 20  XYZ
    dof rx ry rz
    limits (-160.0 20.0)
           (-70.0 70.0)
           (-60.0 70.0)
  end
  begin
     id 3 
     name ltibia
     direction 0.34202 -0.939693 0   
     length 7.52482   
     axis 0 0 20   XYZ
    dof rx
    limits (-10.0 170.0)
  end
  begin
     id 4 
     name lfoot
     direction 0.0675379 -0.185559 0.980309   
     length 2.00961   
     axis -90 7.62852e-016 20   XYZ
    dof rx rz
    limits (-45.0 90.0)
           (-70.0 20.0)
  end
  begin
     id 5 
     name ltoes
     direction 1.5352e-011 -4.22286e-011 1   
     length 1.01383   
     axis -90 7.62852e-016 20   XYZ
    dof rx
    limits (-90.0 20.0)
  end
  begin
     id 6 
     name rhipjoint
     direction -0.510274 -0.769251 0.384544   
     length 2.36742  
     axis 0 0 0  XYZ 
  end
  begin
     id 7 
     name rfemur
     direction -0.34202 -0.939693 0   
     length 7.45325   
     axis 0 0 -20   XYZ
    dof rx ry rz
    limits (-160.0 20.0)
           (-70.0 70.0)
           (-70.0 60.0)
  end
  begin
     id 8 
     name rtibia
     direction -0.34202 -0.939693 0   
     length 7.49587   
     axis 0 0 -20   XYZ
    dof rx
    limits (-10.0 170.0)
 end
 begin
     id 9 
     name rfoot
     direction -0.106475 -0.292536 0.950308   
     length 2.20898  
     axis -90 -7.62852e-016 -20   XYZ
    dof rx rz
    limits (-45.0 90.0)
           (-20.0 70.0)
  end
  begin
     id 10 
     name rtoes
     direction -1.53597e-011 -4.22023e-011 1   
     length 1.10065   
     axis -90 -7.62852e-016 -20   XYZ
    dof rx
    limits (-90.0 20.0)
  end
  begin
     id 11 
     name lowerback
     direction 0.0260024 0.998026 -0.0571652   
     length 2.11214   
     axis 0 0 0   XYZ
    dof rx ry rz
    limits (-20.0 45.0)
           (-30.0 30.0)
           (-30.0 30.0)
  end
  begin
     id 12 
     name upperback
     direction 0.0216202 0.999542 -0.0211766   
     length 2.11689   
     axis 0 0 0   XYZ
    dof rx ry rz
    limits (-20.0 45.0)
           (-30.0 30.0)
           (-30.0 30.0)
  end
  begin
     id 13 
     name thorax
     direction 0.00883312 0.999944 0.00589057   
     length 2.11821   
     axis 0 0 0   XYZ
    dof rx ry rz
    limits (-20.0 45.0)
           (-30.0 30.0)
           (-30.0 30.0)
  end
  begin
     id 14 
     name lowerneck
     direction -0.059386 0.994433 0.0870401   
     length 1.81176   
     axis 0 0 0   XYZ
    dof rx ry rz
    limits (-20.0 45.0)
           (-30.0 30.0)
           (-30.0 30.0)
  end
  begin
     id 15 
     name upperneck
     direction 0.0506457 0.97328 -0.223967   
     length 1.82382   
     axis 0 0 0   XYZ
    dof rx ry rz
    limits (-20.0 45.0)
           (-30.0 30.0)
           (-30.0 30.0)
  end
  begin
     id 16
     name head
     direction 0.0205902 0.996147 -0.0852487  
     length 1.84805  
     axis 0 0 0   XYZ
    dof rx ry rz
    limits (-20.0 45.0)
           (-30.0 30.0)
           (-30.0 30.0)
  end
  begin
     id 17 
     name lclavicle
     direction 0.949493 0.303881 -0.0782325  
     length 3.60584  
     axis 0 0 0   XYZ
    dof ry rz
    limits (-20.0 10.0)
           (0.0 20.0)
  end
  begin
     id 18 
     name lhumerus
     direction 1 -4.48965e-011 1.48782e-027   
     length 4.95681   
     axis 180 -30 -90   XYZ
    dof rx ry rz
    limits (-60.0 90.0)
           (-90.0 90.0)
           (-90.0 90.0)
  end
  begin
     id 19
     name lradius
     direction 1 -4.48952e-011 2.06528e-027   
     length 3.40915   
     axis 180 -30 -90   XYZ
    dof rx
    limits (-10.0 170.0)
  end
  begin
     id 20
     name lwrist
     direction 1 -4.48964e-011 1.28021e-027   
     length 1.70457   
     axis -1.61767e-015 90 90   XYZ
    dof ry
    limits (-180.0 0.0)
 end
  begin
     id 21 
     name lhand
     direction 1 -4.49094e-011 2.54887e-027   
     length 0.616403   
     axis -1.63363e-015 90 90   XYZ
    dof rx rz
    limits (-90.0 90.0)
           (-45.0 45.0)
  end
  begin
     id 22 
     name lfingers
     direction 1 -4.49002e-011 5.11407e-027   
     length 0.49696   
     axis -3.26723e-015 90 90   XYZ
    dof rx
    limits (0.0 90.0)
  end
  begin
     id 23
     name lthumb
     direction 0.707107 -6.34998e-011 0.707107   
     length 0.713539   
     axis -90 45 -2.25915e-014   XYZ
    dof rx rz
    limits (-45.0 45.0)
           (-45.0 45.0)
  end
  begin
     id 24 
     name rclavicle
     direction -0.937751 0.334612 -0.0930482   
     length 3.46287  
     axis 0 0 0   XYZ 
    dof ry rz
    limits (-10.0 20.0)
           (-20.0 0.0)
  end
  begin
     id 25 
     name rhumerus
     direction -1 -4.48962e-011 3.59972e-027  
     length 5.352   
     axis 180 30 90   XYZ
    dof rx ry rz
    limits (-90.0 60.0)
           (-90.0 90.0)
           (-90.0 90.0)
  end
  begin
     id 26 
     name rradius
     direction -1 -4.48987e-011 -3.76925e-027   
     length 3.43721   
     axis 180 30 90   XYZ
    dof rx
    limits (-10.0 170.0)
  end
  begin
     id 27 
     name rwrist
     direction -1 -4.48943e-011 1.28112e-027   
     length 1.7186   
     axis -1.61767e-015 -90 -90   XYZ
    dof ry
    limits (-180.0 0.0)
  end
  begin
     id 28
     name rhand
     direction -1 -4.49027e-011 2.55483e-027   
     length 0.72009   
     axis -1.63363e-015 -90 -90   XYZ
    dof rx rz
    limits (-90.0 90.0)
           (-45.0 45.0)
  end
  begin
     id 29
     name rfingers
     direction -1 -4.48827e-011 5.14506e-027   
     length 0.580555   
     axis -3.26723e-015 -90 -90   XYZ
    dof rx
    limits (0.0 90.0)
  end
  begin
     id 30
     name rthumb
     direction -0.707107 -6.34936e-011 0.707107   
     length 0.833564   
     axis -90 -45 2.25915e-014   XYZ
    dof rx rz
    limits (-45.0 45.0)
           (-45.0 45.0)
  end
:hierarchy
  begin
    root lhipjoint rhipjoint lowerback
    lhipjoint lfemur
    lfemur ltibia
    ltibia lfoot
    lfoot ltoes
    rhipjoint rfemur
    rfemur rtibia
    rtibia rfoot
    rfoot rtoes
    lowerback upperback
    upperback thorax
    thorax lowerneck lclavicle rclavicle
    lowerneck upperneck
    upperneck head
    lclavicle lhumerus
    lhumerus lradius
    lradius lwrist
    lwrist lhand lthumb
    lhand lfingers
    rclavicle rhumerus
    rhumerus rradius
    rradius rwrist
    rwrist rhand rthumb
    rhand rfingers
  end

#!OML:ASF H:\Terrain\Patient Classification 1\Terrain2\Thursday\justin.ASF
:FULLY-SPECIFIED
:DEGREES
413
root -12.4655 17.4786 10.5561 544.554 1.89452 -534.362
lowerback 3.61463 -0.13162 4.2057
upperback 2.01758 0.288292 4.19498
thorax 0.0378865 0.292493 1.94513
lowerneck -12.1657 -5.22952 -8.75351
upperneck 41.8145 -0.882735 3.62895
head 17.6803 0.527389 3.67265
rclavicle -1.17283e-014 -1.00187e-013
rhumerus -27.6364 -8.76988 -79.8669
rradius 30.8682
rwrist -12.951
rhand -21.536 10.2601
rfingers 7.12502
rthumb 4.85683 -19.6642
lclavicle -1.17283e-014 -1.00187e-013
lhumerus -37.223 4.80016 87.394
lradius 33.5582
lwrist -2.15484
lhand -12.5988 20.8134
lfingers 7.12502
lthumb 13.4799 50.3572
rfemur -12.1197 -1.36616 27.138
rtibia 31.8613
rfoot -21.5151 -0.424738
rtoes 10.2386
lfemur -14.1025 -0.305401 -15.6225
ltibia 33.335
lfoot -19.2623 -8.32323
ltoes 7.34488
414
root -12.4882 17.4701 10.517 544.464 1.90335 -535.04
lowerback 3.89032 -0.160215 3.47215
upperback 1.79051 0.22398 4.09273
thorax -0.351008 0.237442 2.25021
lowerneck -11.9452 -5.2332 -9.10904
upperneck 41.7905 -0.900601 3.90578
head 17.6219 0.51001 3.86138
rclavicle -1.98785e-015 2.22639e-014
rhumerus -28.2503 -8.31092 -79.783
rradius 31.324
rwrist -13.4535
rhand -21.1644 10.2544
rfingers 7.12502
rthumb 5.21557 -19.6614
lclavicle -1.98785e-015 2.22639e-014
lhumerus -37.5665 5.16003 87.2352
lradius 32.7759
lwrist -2.1961
lhand -13.0692 19.7526
lfingers 7.12502
lthumb 13.0265 49.3258
rfemur -12.2058 -1.69171 26.248
rtibia 32.4961
rfoot -21.8362 -0.0893032
rtoes 10.2914
lfemur -13.6959 -0.426351 -16.4585
ltibia 33.0881
lfoot -19.1857 -8.65265
ltoes 9.88957
415
root -12.5073 17.4606 10.4831 544.327 1.86101 -535.492
lowerback 4.1483 -0.154177 3.08998
upperback 1.74631 0.214889 3.94353
thorax -0.540694 0.221759 2.30993
lowerneck -12.1462 -5.32443 -9.17619
upperneck 41.8242 -1.07298 4.00227
head 17.7146 0.433399 3.8923
rclavicle 2.68359e-015 3.18055e-014
rhumerus -28.5401 -8.42566 -79.7966
rradius 31.6894
rwrist -13.6266
rhand -21.3159 10.5249
rfingers 7.12502
rthumb 5.06935 -19.3944
lclavicle 2.68359e-015 3.18055e-014
lhumerus -37.4637 5.19193 87.2464
lradius 31.8235
lwrist -0.929994
lhand -11.7272 21.081
lfingers 7.12502
lthumb 14.3199 50.5672
rfemur -12.3191 -1.59723 25.664
rtibia 33.2701
rfoot -22.151 -0.153736
rtoes 8.99742
lfemur -13.2459 -0.690361 -17.0057
ltibia 32.7601
lfoot -19.0469 -8.90136
ltoes 12.2345
416
root -12.5293 17.4549 10.4415 544.271 1.84387 -535.746
lowerback 3.41545 -0.141286 3.33554
upperback 2.20941 0.15866 3.5435
thorax 0.347923 0.19928 1.76455
lowerneck -12.4442 -5.34012 -8.95078
upperneck 41.5013 -1.42416 4.23052
head 17.6252 0.313993 3.86473
rclavicle -1.49089e-015 -2.38542e-014
rhumerus -27.996 -9.33335 -80.2111
rradius 31.7435
rwrist -13.3421
rhand -21.4308 10.5952
rfingers 7.12502
rthumb 4.95837 -19.3268
lclavicle -1.49089e-015 -2.38542e-014
lhumerus -36.5999 5.48086 86.6605
lradius 31.0977
lwrist -0.924887
lhand -10.3905 21.9856
lfingers 7.12502
lthumb 15.6076 51.3759
rfemur -12.5795 -1.4688 25.3056
rtibia 34.1625
rfoot -22.4916 -0.421554
rtoes 6.25667
lfemur -12.8794 -0.666639 -17.3638
ltibia 32.3939
lfoot -19.0989 -9.1024
ltoes 12.2945
417
root -12.556 17.4448 10.3986 544.221 1.90058 -536.162
lowerback 3.6807 -0.269623 2.72501
upperback 1.88372 -0.0183264 3.63069
thorax -0.133138 0.0935559 2.20121
lowerneck -12.1048 -5.30907 -9.16465
upperneck 41.5167 -1.2091 4.00551
head 17.533 0.351854 3.83586
rclavicle -7.55382e-015 -2.8625e-014
rhumerus -28.5336 -8.6351 -80.0556
rradius 31.9146
rwrist -13.5898
rhand -21.4334 10.3619
rfingers 7.12502
rthumb 4.95588 -19.5601
lclavicle -7.55382e-015 -2.8625e-014
lhumerus -37.4221 6.56131 86.4334
lradius 31.1253
lwrist -1.15447
lhand -10.5222 22.9121
lfingers 7.12502
lthumb 15.4807 52.3122
rfemur -12.9124 -1.61003 24.7136
rtibia 35.1589
rfoot -22.7443 -0.41927
rtoes 5.24057
lfemur -12.5102 -0.381547 -17.9561
ltibia 32.0429
lfoot -19.3095 -9.27453
ltoes 10.858
418
root -12.578 17.4273 10.3655 544.186 1.9002 -536.859
lowerback 3.59573 -0.323023 1.98576
upperback 1.84383 -0.141804 3.49629
thorax -0.121924 0.0167316 2.48166
lowerneck -11.8957 -5.21702 -9.15766
upperneck 41.1579 -1.16062 3.89974
head 17.2633 0.34258 3.76022
rclavicle 1.03368e-014 3.02153e-014
rhumerus -28.7105 -8.10363 -80.1371
rradius 32.2065
rwrist -13.9745
rhand -21.3597 10.0234
rfingers 7.12502
rthumb 5.027 -19.8969
lclavicle 1.03368e-014 3.02153e-014
lhumerus -37.4213 6.75968 86.4087
lradius 30.569
lwrist -0.612839
lhand -10.9379 23.646
lfingers 7.12502
lthumb 15.0803 53.0767
rfemur -13.3821 -1.83362 23.8327
rtibia 36.3083
rfoot -22.885 -0.295631
rtoes 4.58817
lfemur -12.1903 -0.120675 -18.8438
ltibia 31.694
lfoot -19.3862 -9.42718
ltoes 10.0084
419
root -12.5973 17.4109 10.3335 544.186 1.81823 -537.306
lowerback 3.37555 -0.275149 1.65682
upperback 1.93947 -0.118309 3.29217
thorax 0.0992564 0.0199391 2.45432
lowerneck -11.9047 -5.18871 -8.99308
upperneck 40.7958 -1.34932 4.01421
head 17.0683 0.283202 3.71945
rclavicle -3.97569e-016 -1.66979e-014
rhumerus -28.7561 -8.14948 -80.2579
rradius 32.453
rwrist -14.1908
rhand -21.4706 10.2622
rfingers 7.12502
rthumb 4.91999 -19.6607
lclavicle -3.97569e-016 -1.66979e-014
lhumerus -36.6157 6.24998 86.371
lradius 29.0794
lwrist -0.308163
lhand -11.2328 23.2328
lfingers 7.12502
lthumb 14.7962 52.6846
rfemur -13.9433 -2.02708 23.2816
rtibia 37.6437
rfoot -22.9601 -0.290426
rtoes 3.44694
lfemur -11.8834 0.0851052 -19.4041
ltibia 31.2787
lfoot -19.4261 -9.6554
ltoes 9.3499
